<svg width="227" height="40" viewBox="0 0 227 40" fill="none" xmlns="http://www.w3.org/2000/svg">
<path fill-rule="evenodd" clip-rule="evenodd" d="M26.6826 39.9531C27.0584 40 27.3871 40 27.7629 40C30.0644 40 32.2719 39.3902 34.1507 38.1237C34.8083 38.5928 35.5598 38.9211 36.3113 39.1557C44.7188 41.5949 52.7505 37.9361 56.7899 29.7742C60.5474 22.1751 60.2186 10.6828 50.496 3.55288C45.6582 -0.012094 38.0961 -0.997151 31.1917 1.06678C24.569 3.03689 19.4963 7.35238 16.6782 13.2627C13.7244 12.5713 12.0404 12.8311 11.4034 12.9293C11.3922 12.9311 11.3813 12.9327 11.3706 12.9344H11.3237C4.37223 14.0132 -0.559543 20.2988 0.0510569 27.2412C0.379842 31.1814 2.39952 34.7464 5.49949 37.0917C8.78733 39.5309 12.9206 40.4691 17.1479 39.6247C18.51 39.3902 19.919 38.7335 21.1402 37.983C22.7372 39.1088 24.616 39.7655 26.6826 39.9531ZM27.0114 35.7314C26.072 35.6845 25.2266 35.45 24.4751 35.0747C26.1659 32.917 27.0584 30.1494 26.8235 27.6633C26.5887 25.6932 25.5553 24.0514 24.0523 23.2071C22.7372 22.4566 21.1402 22.4097 19.7781 23.0195C17.0069 24.286 16.2554 27.4288 16.4903 29.7742C16.6782 31.6974 17.2888 33.433 18.1812 34.8871C17.5236 35.2154 16.866 35.45 16.3494 35.5438C13.2964 36.1067 10.3373 35.4969 8.03583 33.7613C5.87524 32.1195 4.51313 29.6803 4.27829 26.9128C3.85556 22.269 7.33129 17.8597 11.9812 17.1091H12.0752C13.3903 16.8746 15.1282 17.1091 17.2888 17.8128C18.3691 18.1411 19.5433 17.5782 19.919 16.5463C22.7372 8.99414 28.9371 6.1797 32.4129 5.14773C38.0961 3.45906 44.2021 4.16267 48.0066 6.97712C55.7566 12.6529 55.9914 21.7999 52.9854 27.8979C50.543 32.8232 45.1415 37.3263 37.4855 35.0747C37.4386 35.0747 37.3446 35.0747 37.2977 35.0278C38.5189 33.2453 39.2234 31.1345 39.2704 28.8829C39.2704 27.335 38.8007 24.3798 36.734 23.1602C34.8083 22.0344 32.0841 22.1751 30.4402 24.5674C28.9841 26.7252 28.7493 29.5865 29.7826 32.4948C30.1114 33.386 30.5341 34.2304 31.0507 35.0278C29.8295 35.5907 28.4674 35.8721 27.0114 35.7314ZM21.469 26.8659C21.563 26.819 21.6099 26.819 21.7039 26.819C21.7508 26.819 21.7978 26.8307 21.8448 26.8424C21.8917 26.8542 21.9387 26.8659 21.9857 26.8659C22.2675 27.0535 22.5023 27.5226 22.5493 28.0855C22.6902 29.352 22.2205 30.853 21.4221 32.0726C21.0463 31.2752 20.7645 30.3371 20.6705 29.352C20.5766 28.3669 20.8115 27.1473 21.469 26.8659ZM33.9805 26.8835C34.0421 26.8043 34.1037 26.7252 34.2447 26.7252C34.3386 26.7252 34.4325 26.7252 34.5265 26.819C34.7143 27.0535 34.9962 27.9917 34.9962 28.836C34.9492 30.0087 34.6674 31.0876 34.1507 32.0726L33.728 31.0876C33.1644 29.4927 33.2113 27.9917 33.9159 26.9597C33.9394 26.9363 33.9599 26.9099 33.9805 26.8835ZM123.496 13.6287C124.896 13.6287 126.188 14.0072 127.319 14.7102C128.45 15.4131 129.312 16.4404 130.012 17.6841C130.658 18.9277 130.981 20.3876 130.981 22.0639C130.981 23.7401 130.658 25.2 130.012 26.4436C129.366 27.6873 128.45 28.7146 127.373 29.4175C126.296 30.1205 125.057 30.499 123.657 30.499C122.849 30.499 122.096 30.3908 121.395 30.1205C120.695 29.8501 120.049 29.5257 119.511 29.0931C119.227 28.8651 118.973 28.6521 118.757 28.4383V28.6605C118.757 29.2013 118.595 29.6338 118.218 29.9583C117.841 30.2827 117.464 30.499 116.926 30.499C116.387 30.499 115.956 30.3368 115.633 29.9583C115.31 29.6338 115.095 29.1472 115.095 28.6065V9.51932C115.095 8.9786 115.256 8.54603 115.633 8.22161C115.956 7.84311 116.387 7.68089 116.926 7.68089C117.464 7.68089 117.895 7.84311 118.218 8.22161C118.541 8.6001 118.757 9.03267 118.757 9.51932V15.8638C119.016 15.5333 119.357 15.2028 119.78 14.8724C120.265 14.4939 120.803 14.1694 121.449 13.9532C122.096 13.7369 122.796 13.6287 123.496 13.6287ZM123.011 16.9812C122.096 16.9812 121.342 17.1974 120.695 17.63C120.049 18.0626 119.511 18.6574 119.134 19.4144C118.757 20.1714 118.595 21.0365 118.595 22.0098C118.595 22.9831 118.757 23.8482 119.134 24.6052C119.511 25.3622 120.049 26.0111 120.695 26.4436C121.342 26.8762 122.149 27.0925 123.011 27.0925C123.926 27.0925 124.68 26.8762 125.327 26.4436C125.973 26.0111 126.511 25.3622 126.888 24.6052C127.265 23.8482 127.427 22.9831 127.427 22.0098C127.427 21.0365 127.265 20.1714 126.888 19.4144C126.511 18.6574 125.973 18.0626 125.327 17.63C124.68 17.1974 123.926 16.9812 123.011 16.9812ZM105.025 30.4989C103.301 30.4989 101.793 30.1204 100.555 29.4175C99.3162 28.7146 98.3469 27.7413 97.6468 26.4977C96.9468 25.254 96.6236 23.8482 96.6236 22.2801C96.6236 20.4417 97.0006 18.8736 97.7545 17.63C98.5085 16.3323 99.4778 15.359 100.663 14.6561C101.847 13.9531 103.14 13.6287 104.432 13.6287C105.455 13.6287 106.425 13.845 107.34 14.2776C108.256 14.7101 109.063 15.3049 109.763 16.0078C110.464 16.7648 111.056 17.63 111.433 18.6033C111.864 19.5765 112.079 20.6039 112.079 21.6853C112.079 22.172 111.864 22.5505 111.487 22.8749C111.11 23.1993 110.679 23.3075 110.194 23.3075H100.182C100.291 23.8689 100.483 24.3736 100.77 24.8215C101.201 25.5785 101.793 26.1732 102.547 26.5517C103.247 26.9302 104.001 27.1465 104.809 27.1465C105.563 27.1465 106.155 27.0924 106.586 26.9843C107.017 26.8762 107.394 26.7139 107.663 26.5517L107.663 26.5517L107.663 26.5516C107.933 26.3894 108.202 26.2273 108.417 26.1192C108.794 25.9569 109.117 25.8488 109.44 25.8488C109.871 25.8488 110.248 26.011 110.571 26.2814C110.841 26.6058 111.002 26.9302 111.002 27.3628C111.002 27.9035 110.733 28.3902 110.14 28.8768C109.602 29.3094 108.902 29.6879 107.933 30.0664C106.963 30.3367 105.994 30.4989 105.025 30.4989ZM100.393 19.5765C100.322 19.7923 100.262 20.0259 100.214 20.2795H108.202V20.0632C108.148 19.4684 107.933 18.9277 107.556 18.4951C107.179 18.0085 106.694 17.6841 106.155 17.3596C105.617 17.0893 105.025 16.9271 104.378 16.9271C103.786 16.9271 103.194 17.0352 102.655 17.1974C102.117 17.3596 101.686 17.63 101.309 18.0085C100.932 18.387 100.609 18.9277 100.393 19.5765ZM134.105 11.628C134.374 11.8443 134.858 11.9525 135.559 11.9525C136.205 11.9525 136.743 11.8443 137.12 11.628C137.389 11.4118 137.551 11.0333 137.551 10.4385V9.84369C137.551 9.24891 137.389 8.87041 137.12 8.65412C136.797 8.43784 136.312 8.3297 135.612 8.3297C134.966 8.3297 134.481 8.43784 134.158 8.65412C133.835 8.87041 133.674 9.24891 133.674 9.84369V10.4385C133.674 11.0333 133.835 11.4118 134.105 11.628ZM136.851 29.6338C137.228 29.3093 137.389 28.8768 137.389 28.3361V15.7915C137.389 15.3049 137.174 14.8723 136.851 14.4938C136.528 14.1153 136.097 13.9531 135.559 13.9531C135.02 13.9531 134.589 14.1153 134.266 14.4938C133.889 14.8182 133.728 15.2508 133.728 15.7915V28.3361C133.728 28.8227 133.943 29.2553 134.266 29.6338C134.589 30.0123 135.02 30.1745 135.559 30.1745C136.097 30.1745 136.528 30.0123 136.851 29.6338ZM149.775 13.6287C151.283 13.6287 152.414 13.9531 153.168 14.5479C153.922 15.1968 154.46 16.0078 154.784 17.0352C155.053 18.0625 155.214 19.2521 155.214 20.4958V28.282C155.214 28.8227 155.053 29.2553 154.676 29.5797C154.353 29.9582 153.922 30.1204 153.383 30.1204C152.845 30.1204 152.414 29.9582 152.091 29.5797C151.768 29.2012 151.553 28.7687 151.553 28.282V20.5498C151.553 19.901 151.445 19.2521 151.283 18.7655C151.122 18.2248 150.799 17.7922 150.368 17.4678C149.937 17.1433 149.291 16.9811 148.483 16.9811C147.675 16.9811 146.975 17.1433 146.437 17.4678C145.898 17.7922 145.467 18.2248 145.144 18.7655C144.875 19.3062 144.713 19.901 144.713 20.5498V28.3361C144.713 28.8768 144.552 29.3094 144.175 29.6338C143.798 29.9582 143.421 30.1745 142.882 30.1745C142.344 30.1745 141.913 30.0123 141.59 29.6338C141.267 29.2553 141.051 28.8227 141.051 28.3361V15.7916C141.051 15.2508 141.213 14.8183 141.59 14.4938C141.913 14.1153 142.344 13.9531 142.882 13.9531C143.421 13.9531 143.852 14.1153 144.175 14.4938C144.498 14.8723 144.713 15.3049 144.713 15.7916V16.3072C144.824 16.1609 144.95 16.007 145.09 15.8456C145.413 15.4671 145.844 15.0886 146.329 14.7101C146.814 14.3857 147.298 14.0613 147.891 13.8991C148.483 13.7368 149.075 13.6287 149.775 13.6287ZM173.632 26.4436C174.386 25.2 174.763 23.74 174.763 22.0638C174.763 20.3876 174.386 18.9277 173.632 17.6841C172.878 16.4404 171.908 15.4131 170.67 14.7101C169.431 14.0072 168.085 13.6287 166.523 13.6287C165.015 13.6287 163.615 14.0072 162.377 14.7101C161.138 15.4131 160.169 16.4404 159.415 17.6841C158.661 18.9277 158.284 20.3876 158.284 22.0638C158.284 23.686 158.661 25.2 159.415 26.4436C160.169 27.7413 161.138 28.7146 162.377 29.4175C163.615 30.1204 164.962 30.4989 166.523 30.4989C168.031 30.4989 169.431 30.1204 170.67 29.4175C171.908 28.7146 172.878 27.6872 173.632 26.4436ZM170.454 19.3603C170.885 20.1173 171.101 21.0365 171.101 22.0638C171.101 23.0912 170.885 23.9563 170.454 24.7133C170.024 25.4703 169.485 26.0651 168.785 26.4977C168.085 26.9302 167.331 27.1465 166.469 27.1465C165.608 27.1465 164.854 26.9302 164.154 26.4977C163.454 26.0651 162.915 25.4703 162.484 24.7133C162.054 23.9563 161.838 23.0912 161.838 22.0638C161.838 21.0365 162.054 20.1173 162.484 19.3603C162.915 18.6033 163.454 18.0085 164.154 17.5759C164.854 17.1433 165.608 16.9271 166.469 16.9271C167.331 16.9271 168.085 17.1433 168.785 17.5759C169.485 18.0085 170.024 18.6033 170.454 19.3603ZM193.341 22.0638C193.341 23.74 192.964 25.2 192.211 26.4436C191.457 27.6872 190.487 28.7146 189.249 29.4175C188.01 30.1204 186.61 30.4989 185.102 30.4989C183.54 30.4989 182.194 30.1204 180.956 29.4175C179.717 28.7146 178.748 27.7413 177.994 26.4436C177.24 25.2 176.863 23.686 176.863 22.0638C176.863 20.3876 177.24 18.9277 177.994 17.6841C178.748 16.4404 179.717 15.4131 180.956 14.7101C182.194 14.0072 183.594 13.6287 185.102 13.6287C186.664 13.6287 188.01 14.0072 189.249 14.7101C190.487 15.4131 191.457 16.4404 192.211 17.6841C193.018 18.9277 193.341 20.3876 193.341 22.0638ZM189.733 22.0638C189.733 21.0365 189.518 20.1173 189.087 19.3603C188.656 18.6033 188.118 18.0085 187.418 17.5759C186.718 17.1433 185.964 16.9271 185.102 16.9271C184.24 16.9271 183.487 17.1433 182.786 17.5759C182.086 18.0085 181.548 18.6033 181.117 19.3603C180.686 20.1173 180.471 21.0365 180.471 22.0638C180.471 23.0912 180.686 23.9563 181.117 24.7133C181.548 25.4703 182.086 26.0651 182.786 26.4977C183.487 26.9302 184.24 27.1465 185.102 27.1465C185.964 27.1465 186.718 26.9302 187.418 26.4977C188.118 26.0651 188.656 25.4703 189.087 24.7133C189.518 23.9563 189.733 23.0912 189.733 22.0638ZM208.635 14.7102C207.504 14.0072 206.212 13.6287 204.812 13.6287C204.058 13.6287 203.412 13.7369 202.766 13.9532C202.119 14.1694 201.581 14.4939 201.096 14.8724C200.673 15.2028 200.332 15.5333 200.073 15.8638V9.51932C200.073 9.03267 199.858 8.6001 199.534 8.22161C199.211 7.84311 198.781 7.68089 198.242 7.68089C197.703 7.68089 197.273 7.84311 196.95 8.22161C196.573 8.54603 196.411 8.9786 196.411 9.51932V28.6065C196.411 29.1472 196.626 29.6338 196.95 29.9583C197.273 30.3368 197.703 30.499 198.242 30.499C198.781 30.499 199.157 30.2827 199.534 29.9583C199.911 29.6338 200.073 29.2013 200.073 28.6605V28.4383C200.289 28.6521 200.543 28.8651 200.827 29.0931C201.365 29.5257 202.012 29.8501 202.712 30.1205C203.412 30.3908 204.166 30.499 204.973 30.499C206.374 30.499 207.612 30.1205 208.689 29.4175C209.766 28.7146 210.682 27.6873 211.328 26.4436C211.974 25.2 212.297 23.7401 212.297 22.0639C212.297 20.3876 211.974 18.9277 211.328 17.6841C210.628 16.4404 209.766 15.4131 208.635 14.7102ZM202.012 17.63C202.658 17.1974 203.412 16.9812 204.327 16.9812C205.243 16.9812 205.997 17.1974 206.643 17.63C207.289 18.0626 207.828 18.6574 208.205 19.4144C208.582 20.1714 208.743 21.0365 208.743 22.0098C208.743 22.9831 208.582 23.8482 208.205 24.6052C207.828 25.3622 207.289 26.0111 206.643 26.4436C205.997 26.8762 205.243 27.0925 204.327 27.0925C203.466 27.0925 202.658 26.8762 202.012 26.4436C201.365 26.0111 200.827 25.3622 200.45 24.6052C200.073 23.8482 199.911 22.9831 199.911 22.0098C199.911 21.0365 200.073 20.1714 200.45 19.4144C200.827 18.6574 201.365 18.0626 202.012 17.63ZM214.344 27.6872C214.128 27.4169 214.074 27.0384 214.074 26.6058C214.074 26.1732 214.344 25.7947 214.882 25.4703C215.205 25.254 215.528 25.2 215.905 25.2C216.282 25.254 216.605 25.4162 216.982 25.7407C217.575 26.3355 218.167 26.768 218.813 27.0925C219.46 27.4169 220.267 27.5791 221.237 27.5791C221.56 27.5791 221.883 27.525 222.26 27.4169C222.637 27.3628 222.96 27.2006 223.229 26.9302C223.498 26.6599 223.66 26.2814 223.66 25.7407C223.66 25.3081 223.498 24.9296 223.229 24.6592C222.906 24.3889 222.529 24.1726 222.044 24.0104C221.911 23.9658 221.774 23.9171 221.631 23.8666C221.256 23.7334 220.844 23.5873 220.375 23.4697C219.729 23.3075 219.083 23.0912 218.436 22.8749C217.79 22.6586 217.198 22.3883 216.659 22.0098C216.121 21.6313 215.69 21.1987 215.313 20.6039C214.99 20.0091 214.774 19.2521 214.774 18.387C214.774 17.3596 215.044 16.4945 215.636 15.7916C216.175 15.0886 216.929 14.5479 217.844 14.1694C218.76 13.7909 219.675 13.5746 220.698 13.5746C221.344 13.5746 221.991 13.6287 222.691 13.7909C223.391 13.9531 224.037 14.1694 224.683 14.4939C225.329 14.8183 225.814 15.2509 226.245 15.7916C226.46 16.116 226.622 16.4404 226.622 16.873C226.676 17.3056 226.46 17.6841 226.03 18.0085C225.706 18.2788 225.383 18.3329 224.952 18.3329C224.522 18.2788 224.199 18.1707 223.929 17.9003C223.606 17.4678 223.122 17.0893 222.529 16.8189C221.937 16.5486 221.291 16.4404 220.537 16.4404C220.214 16.4404 219.89 16.4945 219.567 16.5486C219.19 16.6026 218.921 16.7648 218.652 16.9811C218.383 17.1974 218.275 17.5759 218.275 18.1166C218.275 18.6033 218.436 18.9277 218.706 19.2521C219.029 19.5225 219.406 19.7388 219.944 19.901C220.483 20.0632 221.021 20.2254 221.614 20.3876C222.206 20.5498 222.852 20.7661 223.445 20.9824C224.091 21.1987 224.629 21.5231 225.168 21.8475C225.706 22.226 226.137 22.6586 226.46 23.2534C226.783 23.8482 226.945 24.5511 226.945 25.4703C226.945 26.4977 226.622 27.3628 226.03 28.1198C225.437 28.8768 224.683 29.4175 223.768 29.796C222.852 30.1745 221.937 30.3367 220.967 30.3367C219.783 30.3367 218.598 30.1204 217.413 29.6879C216.121 29.4716 215.098 28.7146 214.344 27.6872ZM81.0066 13.8993C81.1953 13.8993 81.3708 13.9192 81.5331 13.9614C81.9778 13.9987 82.3408 14.1643 82.6222 14.4939C82.9453 14.8724 83.1607 15.3049 83.1607 15.7916V23.5238C83.1607 24.7674 83.4299 25.6866 83.9685 26.2814C84.507 26.8762 85.3148 27.2006 86.4456 27.2006C87.5765 27.2006 88.3843 26.8762 88.9228 26.2814C89.4613 25.6866 89.7306 24.7674 89.7306 23.5238V15.7916C89.7306 15.2509 89.8922 14.8183 90.2691 14.4939C90.5922 14.1154 91.0231 13.8991 91.5616 13.8991C92.1001 13.8991 92.5309 14.0613 92.854 14.4398C93.1771 14.8183 93.3925 15.2509 93.3925 15.7375V23.4697C93.3925 25.6325 92.8002 27.3088 91.6154 28.6065C90.4307 29.8501 88.7074 30.499 86.4456 30.499C84.1839 30.499 82.4606 29.8501 81.2759 28.6065C81.2387 28.5675 81.2022 28.528 81.1662 28.4881C81.1315 28.528 81.0963 28.5675 81.0605 28.6067C79.8757 29.8503 78.1525 30.4992 75.8907 30.4992C73.6289 30.4992 71.9595 29.8503 70.7748 28.6067C69.59 27.3631 68.9977 25.6328 68.9977 23.524V15.7918C68.9977 15.2511 69.1592 14.8185 69.5362 14.4941C69.8593 14.1156 70.2901 13.9534 70.8286 13.9534C71.3671 13.9534 71.798 14.1156 72.1211 14.4941C72.4442 14.8726 72.6596 15.3052 72.6596 15.7918V23.524C72.6596 24.7676 72.9288 25.6868 73.4674 26.2816C74.0059 26.8764 74.8137 27.2008 75.9445 27.2008C77.0754 27.2008 77.8832 26.8764 78.4217 26.2816C78.9603 25.6868 79.2295 24.7676 79.2295 23.524V15.7918C79.2295 15.2511 79.3911 14.8185 79.768 14.4941C80.0911 14.1156 80.5219 13.8993 81.0066 13.8993Z" fill="white"/>
</svg>
